<svg xmlns="http://www.w3.org/2000/svg" viewBox="0 0 1088.1 213.77"><defs><style>.cls-1{fill:#fdfdfe;}.cls-2{fill:#4576fd;}</style></defs><g id="Layer_2" data-name="Layer 2"><g id="Layer_1-2" data-name="Layer 1"><path class="cls-1" d="M175.05,24.56A153,153,0,0,0,68.53,92.48,152.24,152.24,0,0,0,.08,110.66c0-1.25-.08-2.51-.08-3.78A106.88,106.88,0,0,1,175.05,24.56Z"/><path class="cls-2" d="M43.72,176a152.35,152.35,0,0,0,1,17.84A107,107,0,0,1,5.55,141a123.1,123.1,0,0,1,47.69-18.13A152.4,152.4,0,0,0,43.72,176Z"/><path class="cls-1" d="M180.63,184.26A107,107,0,0,1,77.21,209.59,124.67,124.67,0,0,1,85,121.91,124.09,124.09,0,0,1,180.63,184.26Z"/><path class="cls-1" d="M213.77,106.88a106.49,106.49,0,0,1-14.14,53.18,153.19,153.19,0,0,0-97.2-64.73,123.82,123.82,0,0,1,94.32-43.44c.6,0,1.21,0,1.82,0A106.45,106.45,0,0,1,213.77,106.88Z"/><path class="cls-1" d="M289.6,164.67H264.15V45.43H289.6V79.24l-.72,22.43,16.56-20.29,32.21-35.95h29.89L315,105.05l-3.2,2-22.24,24.2Zm79.72,0H340L301.34,99.89l20.47-14.42Z"/><path class="cls-1" d="M395.13,164.67H369.68V77.47h25.45Z"/><path class="cls-1" d="M457.41,164.67H425.2l-30.61-87.2h28.12l12.1,41.82,6.76,30.61,6.59-30.61,12.1-41.82H488Z"/><path class="cls-1" d="M509.91,166.45a29.18,29.18,0,0,1-14.33-3.3,22.55,22.55,0,0,1-9.25-9.61A32.47,32.47,0,0,1,483,138.33V77.47h25.44v52q0,8,2.94,12.64t11.66,4.62c4,0,7.21-.77,9.52-2.31a12.34,12.34,0,0,0,4.89-6.94,40.62,40.62,0,0,0,1.43-11.75l.89,9.08A49.66,49.66,0,0,1,535.62,150a30,30,0,0,1-9.52,11.83Q519.88,166.44,509.91,166.45Zm54.45-1.78H538.92V77.47h25.44Z"/><path class="cls-1" d="M624.16,166.45a91.89,91.89,0,0,1-21.89-2.58,63.17,63.17,0,0,1-19.13-8.1,47.46,47.46,0,0,1-14.33-14.24L585.72,122a36.43,36.43,0,0,0,10.59,12.19,47.15,47.15,0,0,0,14.14,7,51.06,51.06,0,0,0,14.78,2.31,32.71,32.71,0,0,0,9.16-1.16,13.42,13.42,0,0,0,6.32-3.65A9.28,9.28,0,0,0,643,132.1a10.41,10.41,0,0,0-2.58-7.39,19.57,19.57,0,0,0-7.83-4.62,95.66,95.66,0,0,0-13.26-3.47l-11.56-2.49a96.43,96.43,0,0,1-13.35-3.74,42,42,0,0,1-11.57-6.32,28.28,28.28,0,0,1-8.1-10,32.72,32.72,0,0,1-2.93-14.51q0-11.75,6-19.66A36.27,36.27,0,0,1,593.91,48a60,60,0,0,1,22.24-4q16.73,0,29.81,6.05a50.06,50.06,0,0,1,20.55,16.73l-17.26,19.4A39.69,39.69,0,0,0,633.77,72a42.8,42.8,0,0,0-19.93-5,23.22,23.22,0,0,0-8.19,1.33A12.72,12.72,0,0,0,600.13,72a8.88,8.88,0,0,0-2,5.78q0,6.59,5.42,9.61a56.89,56.89,0,0,0,14.69,5.16l13.52,3.21A97,97,0,0,1,647,100.6a46.87,46.87,0,0,1,11.83,6.94,27.41,27.41,0,0,1,7.65,10,33.27,33.27,0,0,1,2.67,13.88q0,11.38-5.87,19.22a36,36,0,0,1-16,11.83A62.59,62.59,0,0,1,624.16,166.45Z"/><path class="cls-1" d="M698.72,197.77H673.28V77.47h25.44Zm26.7-31.32q-10.14,0-15.84-4.63A25.71,25.71,0,0,1,701.39,150,70.68,70.68,0,0,1,698,134.77l.71-9.08a31.75,31.75,0,0,0,1.87,11.75,14,14,0,0,0,5.61,6.94,17,17,0,0,0,9.08,2.31A16.39,16.39,0,0,0,729.07,140q5.07-6.68,5.07-19,0-12.64-5.07-19.13a16.57,16.57,0,0,0-13.79-6.5,17.48,17.48,0,0,0-9.08,2.22,13.62,13.62,0,0,0-5.61,6.86,31.73,31.73,0,0,0-1.87,11.74l-.71-9.07a63,63,0,0,1,3.65-15.31,26.11,26.11,0,0,1,8.72-11.83q6-4.55,16.11-4.54a29.89,29.89,0,0,1,17.7,5.34q7.57,5.34,11.66,15.48t4.09,24.74q0,14.24-4.18,24.47t-11.92,15.57A31.63,31.63,0,0,1,725.42,166.45Z"/><path class="cls-1" d="M788.77,164.67H763.32V45.43h25.45Zm55.88,0H819.2v-52q0-8-2.76-12.63t-11.65-4.63q-6.06,0-9.52,2.31a12.79,12.79,0,0,0-5,6.94,38.43,38.43,0,0,0-1.51,11.75l-.71-9.08a52.18,52.18,0,0,1,4.09-15.3,28.33,28.33,0,0,1,9.52-11.84Q808,75.69,818,75.69q12.45,0,19.57,7.29t7.12,20.82Z"/><path class="cls-1" d="M892,166.45q-13.89,0-23.94-5.7a38.14,38.14,0,0,1-15.39-16,50.8,50.8,0,0,1-5.34-23.67q0-13.53,5.34-23.76a39.16,39.16,0,0,1,15-15.93,42.74,42.74,0,0,1,22.24-5.69q13.89,0,23.14,5.51a35.21,35.21,0,0,1,13.88,15A46.7,46.7,0,0,1,931.5,117q0,2.85-.27,6a40.72,40.72,0,0,1-.62,4.72H865.47V113.06h47.34l-4.09,3.38q0-10.32-4.63-15.75T890,95.26q-8.89,0-14,5.43T871,117v6.59q0,7.65,2.67,12.54a16.93,16.93,0,0,0,7.56,7.3,24.92,24.92,0,0,0,11.12,2.4,30,30,0,0,0,10.5-1.6,19.07,19.07,0,0,0,7.12-4.54,21.83,21.83,0,0,0,4.45-6.67l15.48,15.48q-4.8,6.94-14,12.46T892,166.45Z"/><path class="cls-1" d="M961,164.67H935.59V77.47H961Zm0-46.1-.72-9.07a62.17,62.17,0,0,1,2.67-12,42.1,42.1,0,0,1,5.43-10.95,26.23,26.23,0,0,1,8.63-7.92,24,24,0,0,1,12.1-2.93q9.79,0,14.86,5.78t5.07,16.1a41.44,41.44,0,0,1-1.69,12.37,34,34,0,0,1-3.29,7.92H979.54a22.16,22.16,0,0,0,4.36-6.58,18.8,18.8,0,0,0,1.87-7.83A10.43,10.43,0,0,0,984,97.22c-1.19-1.66-3.2-2.49-6-2.49a13.5,13.5,0,0,0-8.19,2.93,20.66,20.66,0,0,0-6.31,8.28A30.6,30.6,0,0,0,961,118.57Z"/><path class="cls-1" d="M1048.59,166.45q-13.87,0-23.93-5.7a38.11,38.11,0,0,1-15.4-16,50.8,50.8,0,0,1-5.34-23.67q0-13.53,5.34-23.76a39.16,39.16,0,0,1,15-15.93,42.78,42.78,0,0,1,22.25-5.69q13.88,0,23.13,5.51a35.09,35.09,0,0,1,13.88,15A46.57,46.57,0,0,1,1088.1,117q0,2.85-.27,6a38.61,38.61,0,0,1-.62,4.72h-65.13V113.06h47.33l-4.09,3.38q0-10.32-4.63-15.75t-14.06-5.43q-8.89,0-14,5.43T1027.59,117v6.59q0,7.65,2.67,12.54a16.9,16.9,0,0,0,7.57,7.3,24.89,24.89,0,0,0,11.12,2.4,30,30,0,0,0,10.5-1.6,19.15,19.15,0,0,0,7.12-4.54A21.8,21.8,0,0,0,1071,133l15.49,15.48a44.59,44.59,0,0,1-14,12.46Q1063.37,166.45,1048.59,166.45Z"/><rect class="cls-2" x="369.68" y="45.43" width="25.45" height="25.45" rx="12.72"/></g></g></svg>