<svg xmlns="http://www.w3.org/2000/svg" viewBox="0 0 2301.18 600.59"><defs><style>.cls-1{fill:#6b7280;}</style></defs><g id="Layer_2" data-name="Layer 2"><g id="Layer_1-2" data-name="Layer 1"><path class="cls-1" d="M599.91,280.06A298.6,298.6,0,0,0,552.31,137C498.78,54.52,405.9,0,300.29,0A300.22,300.22,0,0,0,.67,280.06Q0,290.08,0,300.29q0,6.68.29,13.26a300,300,0,0,0,300,287c102,0,192.21-50.91,246.47-128.71a298.54,298.54,0,0,0,53.53-158.33q.3-6.58.29-13.26Q600.58,290.09,599.91,280.06ZM198.86,137H340a57.3,57.3,0,0,1,37.11,13.4,75.64,75.64,0,0,1,4.58,111.44,77.29,77.29,0,0,1-6.63,5.91,58,58,0,0,1-36,12.36H198.86ZM420.57,403.18a68.9,68.9,0,0,1-68.7,68.7h-153V313.55h153a68.9,68.9,0,0,1,68.7,68.7Z"/><path class="cls-1" d="M766.8,286.15V119.68h82.49q20.94,0,34.77,4.49T904.87,138q7,9.34,7,24.55,0,13.45-6.1,23.17t-20.56,14.95q16.44,4.5,24.05,14.46t7.6,25.67q0,23.18-16.2,34.26t-51.34,11.09Zm42.87-100.93h35.14q14,0,18.81-4.11T868.48,169q0-8-4.86-11.84t-18.81-3.86H809.67Zm0,67.29h35.14q10.71,0,16.94-2t9-6a17.66,17.66,0,0,0,2.75-10.22q0-6.73-2.75-10.72t-9-6q-6.22-2-16.94-2H809.67Z"/><path class="cls-1" d="M939.75,286.15V119.68h42.87V248.77h68.78v37.38Z"/><path class="cls-1" d="M1061.86,286.15l63.05-166.47h47.35l63,166.47H1189L1180.24,260h-63L1108,286.15ZM1180.24,260l-31.9-96-31.15,96"/><path class="cls-1" d="M1319.05,288.65q-27.16,0-47.35-11.09a78.34,78.34,0,0,1-31.15-30.41q-11-19.31-11-44.23t11.34-44.24a81.46,81.46,0,0,1,31.28-30.4q19.93-11.09,46.85-11.09a109.57,109.57,0,0,1,30.78,4.24,112,112,0,0,1,29.28,13.7l-14.95,32.4a96,96,0,0,0-23.31-10.09,84.93,84.93,0,0,0-21.8-2.87q-14,0-24.3,6a41.3,41.3,0,0,0-16.07,16.82q-5.75,10.84-5.73,25.55,0,14.46,5.73,25.54a40,40,0,0,0,16.07,16.95q10.34,5.85,24.3,5.86a84.93,84.93,0,0,0,21.8-2.87,96,96,0,0,0,23.31-10.09l14.95,32.39a111.7,111.7,0,0,1-29.28,13.71A109.94,109.94,0,0,1,1319.05,288.65Z"/><path class="cls-1" d="M1400,286.15V119.68h42.86v67l54.58-67h50.09l-61,72.27,63.54,94.2H1500l-39.87-63-17.2,20.44v42.61Z"/><path class="cls-1" d="M1622.83,286.15V119.68h82.49q20.94,0,34.77,4.49t20.8,13.83q7,9.34,7,24.55,0,13.45-6.1,23.17t-20.56,14.95q16.44,4.5,24,14.46t7.6,25.67q0,23.18-16.2,34.26t-51.34,11.09Zm42.87-100.93h35.14q14,0,18.81-4.11t4.86-12.08q0-8-4.86-11.84t-18.81-3.86H1665.7Zm0,67.29h35.14q10.71,0,16.94-2t9-6a17.66,17.66,0,0,0,2.75-10.22q0-6.73-2.75-10.72t-9-6q-6.22-2-16.94-2H1665.7Z"/><path class="cls-1" d="M1877.77,288.65q-27.16,0-47.47-11.09a77.21,77.21,0,0,1-31.15-30.41q-10.85-19.31-10.84-44.23t11.08-44.24a79.52,79.52,0,0,1,31.16-30.4q20.06-11.09,47.22-11.09t47.35,11.09a78.38,78.38,0,0,1,31.15,30.4q11,19.32,11,44.24t-11,44.23a78.34,78.34,0,0,1-31.15,30.41Q1904.93,288.65,1877.77,288.65Zm0-37.38q13.71,0,24-5.86a41.13,41.13,0,0,0,16.2-16.82q5.85-11,5.86-25.92,0-14.44-5.86-25.3a42.44,42.44,0,0,0-16.08-16.82q-10.21-6-24.42-6-13.71,0-24,6a41.55,41.55,0,0,0-16.07,16.7q-5.73,10.73-5.73,25.42t5.73,25.79a40.09,40.09,0,0,0,16.07,16.95Q1863.82,251.26,1877.77,251.27Z"/><path class="cls-1" d="M1990.17,286.15V119.68h74.26q31.4,0,48.1,13.46t16.69,39.62q0,20.19-9.84,32.28t-27.79,17.07l46.11,64h-49.84L2047,225.6h-14v60.55Zm42.86-93.7h24.17q15.45,0,22.06-5t6.6-14.46q0-10.22-6.35-14.95t-22.31-4.73H2033Z"/><path class="cls-1" d="M2152.15,286.15V119.68h45.36l60.8,101.43V119.68h42.87V286.15h-45.36L2195,184.73V286.15Z"/><path class="cls-1" d="M804.3,483.4q-11.67,0-20.11-5a33.53,33.53,0,0,1-12.91-13.82,47.38,47.38,0,0,1,0-40.22,33.53,33.53,0,0,1,12.91-13.82q8.44-5,20.11-5a40.51,40.51,0,0,1,14.11,2.32,37.88,37.88,0,0,1,11.38,6.63l-3.17,5.21a33,33,0,0,0-10-6.06,34.18,34.18,0,0,0-12.29-2.1,31.08,31.08,0,0,0-16.37,4.14,27.39,27.39,0,0,0-10.53,11.55,42.31,42.31,0,0,0,0,34.56,27.34,27.34,0,0,0,10.53,11.55,31.08,31.08,0,0,0,16.37,4.14,35.09,35.09,0,0,0,12.29-2,31.9,31.9,0,0,0,10-6l3.17,5.21a36.72,36.72,0,0,1-11.38,6.58A41.48,41.48,0,0,1,804.3,483.4Z"/><path class="cls-1" d="M928.69,483.4q-11.67,0-20.1-5a33.49,33.49,0,0,1-12.92-13.82,47.47,47.47,0,0,1,0-40.22,33.49,33.49,0,0,1,12.92-13.82q8.43-5,20-5,11.79,0,20.17,5a34,34,0,0,1,12.91,13.82,46.9,46.9,0,0,1,0,40.22,34,34,0,0,1-12.91,13.82Q940.37,483.4,928.69,483.4Zm0-6a31.12,31.12,0,0,0,16.38-4.14,27.4,27.4,0,0,0,10.53-11.55,42.41,42.41,0,0,0,0-34.56,27.46,27.46,0,0,0-10.53-11.55,34.43,34.43,0,0,0-32.74,0,27.35,27.35,0,0,0-10.54,11.55,42.41,42.41,0,0,0,0,34.56,27.29,27.29,0,0,0,10.54,11.55A31,31,0,0,0,928.69,477.4Z"/><path class="cls-1" d="M1038.13,482.27V406.59h10.42l30.37,67.75,30.47-67.75h10.42v75.68h-6.68V413.39L1082,482.27h-6.11l-31-68.65v68.65Z"/><path class="cls-1" d="M1195.15,482.27V406.59h10.42l30.36,67.75,30.48-67.75h10.42v75.68h-6.68V413.39L1239,482.27h-6.12l-31-68.65v68.65Z"/><path class="cls-1" d="M1382.87,483.4q-14.16,0-22.43-7.65t-8.27-24v-45.2h6.68v45.2c0,6,1,10.95,2.89,14.73a17.91,17.91,0,0,0,8.27,8.27,33,33,0,0,0,25.72,0,18,18,0,0,0,8.27-8.27c1.92-3.78,2.88-8.68,2.88-14.73v-45.2h6.69v45.2q0,16.32-8.27,24T1382.87,483.4Z"/><path class="cls-1" d="M1488.9,482.27V406.59h7.82l46.9,66.73V406.59h6.69v75.68h-7.82l-46.9-66.73v66.73Z"/><path class="cls-1" d="M1625.64,482.27V406.59h6.69v75.68Z"/><path class="cls-1" d="M1727.6,482.27V412.59H1703v-6h55.74v6h-24.47v69.68Z"/><path class="cls-1" d="M1854.37,482.27v-29.8l-30.93-45.88h7.82l26.4,39.88,26.39-39.88H1892l-30.93,45.88v29.8Z"/></g></g></svg>