<svg xmlns="http://www.w3.org/2000/svg" viewBox="0 0 184.57 26.92"><defs><style>.cls-1{fill:#6b7280;}.cls-2{fill:#cfcfd3;opacity:0.45;}</style></defs><g id="Layer_2" data-name="Layer 2"><g id="Layer_1-2" data-name="Layer 1"><path class="cls-1" d="M0,26.63V5.86C0,5.15.13,4.69.39,4.5a2.34,2.34,0,0,1,1.37-.3H5v9.46H18.67V4.2h5V24.77a2.42,2.42,0,0,1-.32,1.49,2,2,0,0,1-1.48.37H18.65V16.39H5V26.63Z"/><path class="cls-1" d="M36.65,26.92a22.21,22.21,0,0,1-4.31-.37,7.49,7.49,0,0,1-3.22-1.39,6.21,6.21,0,0,1-2-3,20.27,20.27,0,0,1,0-10.43,6.21,6.21,0,0,1,2-3,7.61,7.61,0,0,1,3.22-1.39A23,23,0,0,1,36.65,7a22.08,22.08,0,0,1,4.22.37,7.37,7.37,0,0,1,3.19,1.39,6.45,6.45,0,0,1,2,3,15.9,15.9,0,0,1,.7,5.22,16.14,16.14,0,0,1-.7,5.26,6.38,6.38,0,0,1-2,3,7.62,7.62,0,0,1-3.19,1.36A22.13,22.13,0,0,1,36.65,26.92Zm0-2.44a7.49,7.49,0,0,0,3-.54,3.56,3.56,0,0,0,1.88-2.14,19.18,19.18,0,0,0,0-9.75,3.65,3.65,0,0,0-1.88-2.14,7.49,7.49,0,0,0-3-.54,7.67,7.67,0,0,0-3,.54,3.75,3.75,0,0,0-1.92,2.14,18.33,18.33,0,0,0,0,9.75,3.68,3.68,0,0,0,1.92,2.14,7.66,7.66,0,0,0,3,.53Z"/><path class="cls-1" d="M53.13,26.63H50a1.49,1.49,0,0,1-1.12-.39,2.08,2.08,0,0,1-.39-1.47V8.15c.78-.22,1.87-.47,3.26-.73a27.87,27.87,0,0,1,5-.39,21.63,21.63,0,0,1,4.54.37,5.55,5.55,0,0,1,2.46,1.07,3.15,3.15,0,0,1,1,1.71A10.52,10.52,0,0,1,65,12.49H60.59v-.68A2.1,2.1,0,0,0,60,10.13a3.07,3.07,0,0,0-1.44-.66,9.23,9.23,0,0,0-1.66-.15,9.06,9.06,0,0,0-2.26.25,3.86,3.86,0,0,0-1.49.63Z"/><path class="cls-1" d="M70.09,26.82c-1.72,0-2.89-.41-3.51-1.24a6.2,6.2,0,0,1-.93-3.73V7.18h4.64V21.61a4.81,4.81,0,0,0,.46,2.53,1.73,1.73,0,0,0,1.58.68,4.78,4.78,0,0,0,1-.1,5.12,5.12,0,0,0,.68-.14v1.89l-.63.15c-.3.06-.7.12-1.22.17S70.9,26.82,70.09,26.82ZM68,4.47a3.58,3.58,0,0,1-1.68-.32A1.25,1.25,0,0,1,65.8,3a1.26,1.26,0,0,1,.54-1.2A3.44,3.44,0,0,1,68,1.45a3.32,3.32,0,0,1,1.64.31,1.66,1.66,0,0,1,0,2.35l0,0A3.2,3.2,0,0,1,68,4.47Z"/><path class="cls-1" d="M77.94,24.09h13l.1,1a1.18,1.18,0,0,1-.27,1.19,2.16,2.16,0,0,1-1.44.37H72.23V24.21L84.56,9.73H72.82V8.66a1.55,1.55,0,0,1,.36-1.07,1.25,1.25,0,0,1,1-.39H90.76a2.8,2.8,0,0,1-.17,1.31A6.68,6.68,0,0,1,89.81,10a14.3,14.3,0,0,1-1.1,1.41Z"/><path class="cls-1" d="M101.14,26.92a22.31,22.31,0,0,1-4.32-.37,7.4,7.4,0,0,1-3.21-1.39,6.14,6.14,0,0,1-2-3,20.27,20.27,0,0,1,0-10.43,6.14,6.14,0,0,1,2-3,7.62,7.62,0,0,1,3.21-1.39A23.2,23.2,0,0,1,101.14,7a22,22,0,0,1,4.21.37,7.41,7.41,0,0,1,3.2,1.39,6.45,6.45,0,0,1,2,3,15.9,15.9,0,0,1,.7,5.22,16.14,16.14,0,0,1-.7,5.26,6.33,6.33,0,0,1-2,3,7.66,7.66,0,0,1-3.2,1.36A22,22,0,0,1,101.14,26.92Zm0-2.44a7.32,7.32,0,0,0,3-.54A3.56,3.56,0,0,0,106,21.8a19.18,19.18,0,0,0,0-9.75,3.65,3.65,0,0,0-1.88-2.14,7.32,7.32,0,0,0-3-.54,7.67,7.67,0,0,0-3,.54,3.75,3.75,0,0,0-1.92,2.14,18.33,18.33,0,0,0,0,9.75,3.68,3.68,0,0,0,1.92,2.14,7.88,7.88,0,0,0,3,.53Z"/><path class="cls-1" d="M114.35,26.63a1.21,1.21,0,0,1-1.37-1,1,1,0,0,1,0-.34V8.47a21.37,21.37,0,0,1,4-1A30.57,30.57,0,0,1,122.58,7a26.15,26.15,0,0,1,5,.39,6.26,6.26,0,0,1,2.85,1.25,4,4,0,0,1,1.29,2.21,15.28,15.28,0,0,1,.32,3.37V24.77a4.23,4.23,0,0,1-.12,1.12.84.84,0,0,1-.54.59,3.7,3.7,0,0,1-1.24.15h-2.68V13.22a3.13,3.13,0,0,0-1.17-2.75,6.51,6.51,0,0,0-3.71-.83,12.76,12.76,0,0,0-1.75.13,14.54,14.54,0,0,0-1.86.36,4.59,4.59,0,0,0-1.41.63V26.61Z"/><path class="cls-1" d="M148.76,18.68l-2.83,8h-3.85l6.82-19a6.42,6.42,0,0,1,1.85-2.71,6,6,0,0,1,3.81-1,6.17,6.17,0,0,1,3.58.88,5.43,5.43,0,0,1,1.92,2.78l7,19h-5.41l-3-7.95m0,0-3.07-8.92a4.71,4.71,0,0,0-.51-1.12,1.51,1.51,0,0,0-1.34-.49,1.59,1.59,0,0,0-1.42.51,4.85,4.85,0,0,0-.53,1.1l-3,9"/><path class="cls-1" d="M172.1,26.82c-1.72,0-2.89-.41-3.51-1.24a6.19,6.19,0,0,1-.92-3.73V7.18h4.62V21.61a4.81,4.81,0,0,0,.46,2.53,1.76,1.76,0,0,0,1.58.68,4.78,4.78,0,0,0,1-.1,5.12,5.12,0,0,0,.68-.14v1.89l-.63.15c-.4.08-.81.13-1.22.17C173.58,26.8,172.91,26.82,172.1,26.82Zm-2-22.35a3.6,3.6,0,0,1-1.68-.32A1.25,1.25,0,0,1,167.81,3a1.26,1.26,0,0,1,.54-1.2,3.55,3.55,0,0,1,1.7-.31,3.32,3.32,0,0,1,1.64.31,1.66,1.66,0,0,1,0,2.35l0,0A3.2,3.2,0,0,1,170.05,4.47Z"/><path class="cls-2" d="M68,4.47a3.58,3.58,0,0,1-1.68-.32A1.25,1.25,0,0,1,65.8,3a1.26,1.26,0,0,1,.54-1.2A3.44,3.44,0,0,1,68,1.45a3.32,3.32,0,0,1,1.64.31,1.66,1.66,0,0,1,0,2.35l0,0A3.2,3.2,0,0,1,68,4.47Z"/><path class="cls-1" d="M179.41,3V.47h-1V0h2.5V.47h-1V3Z"/><path class="cls-1" d="M181.34,3V0h.46l1.29,2.16h-.24L184.12,0h.45V3H184V.84h.11l-1.07,1.8h-.25l-1.1-1.8h.13V3Z"/></g></g></svg>