<svg xmlns="http://www.w3.org/2000/svg" viewBox="0 0 530.1 391.32"><defs><style>.cls-1{fill:#c6c6c5;}.cls-2{fill:#6b7280;}</style></defs><g id="Layer_2" data-name="Layer 2"><g id="Layer_1-2" data-name="Layer 1"><circle class="cls-1" cx="516.45" cy="183.07" r="13.65"/><path class="cls-2" d="M19.9,21.47,38,0h12.4V24.59L19.9,43.35ZM19.9,0H32.62L19.9,15Zm0,48.25L50.44,29.49v13L19.9,59.71Zm0,16.25L50.44,47.31V67.63L19.9,77.11Zm0,17L50.44,72V92.33L19.9,112Zm0,35.53L50.44,97.33v18.55L19.9,127.65Zm0,15.11,30.54-11.77v6.77L19.9,151.51Zm0,24.7,30.54-24.39V151L19.9,171.52Zm-.65,41.11.65-21.31L50.44,156.1V171"/><path class="cls-2" d="M78.05,43.77,97.43,25h11.26l1.66,6.56L78.05,54.19Zm0-18.76H91.49L78.05,38Zm0,34.18L111.5,35.85,115,48.77l-37,21.36Zm0,15.84,38-22.09,4.48,16.36L78.05,91.39Zm0,21,43.56-22.72,4.17,15.84L78.05,108.69Zm29.59,14.59L78.05,121.5v-8.33l48.87-19.91,2.5,9.49-20.32,7.39-1.46-5.83Zm0,4.48v13.33l-29.59,8V126ZM78.05,140.78l29.59-8v11.35l-29.59,5Zm0,12.61,29.59-5v12L78.05,166.1Zm0,16.88,29.59-5.73V180.6l-29.59,9.68Zm29.59,34.18H78.05l.21-10,29.38-9.54Zm2.5-90.24,20.32-7.5,4,14.58-21.15,5.63ZM114.21,131l21.26-5.62L139,138.8l-21.88,3.75Zm4,15.64,22-3.76,2.6,9.7,2.92-10.63,24-4.07L167,148.8l-46.16,9Zm3.75,15.21,44-8.55-2.39,10.11-38.14,12.3Zm4.48,17.92,35.95-11.56-4.17,17.29-28,9.49Zm27.2,24.7h-21L131.19,199,157,190.28Zm21.78-90-4.59,19-24,4.07L151.1,121Zm1.14-4.48-24.17,6.46,5.21-19.7,49.49-18.13V101.7l-29.28,7.82v-4.79ZM162.35,78.78l44.7-18.34V74.09L158.81,91.8ZM207.05,56,163.71,73.67,168.6,55l38.45-16.88ZM176.42,25h30.63v8.54L170,49.91Zm1.35,88.78L207.05,106v21.25l-29.28,4.9Zm0,22.61,29.28-4.89V141l-29.28,5.73Zm0,14.59,29.28-5.73v4l-29.28,9.48Zm0,12.19,29.28-9.48v15.22l-29.28,9.89Zm0,20,29.28-9.9v10.94l-29.28,12.4Zm29.28,21.26H177.77v-3.23l29.28-12.51Z"/><path class="cls-2" d="M255.51,204.45H224.77l31.57-5.94Zm-29.18-10.21,32.31-10.84-1.57,10.73-31.57,5.94Zm64.09-27.93H261.35l-2,12.5-32.31,10.84,1-7.19,88.16-47.62,1.15,6.15,2.71,17.71-29.39,9.8Zm-59.29-4.06,41.16-21.16h14.27l-.83-6.87,27.93-14.49,1.87,10.73-86.59,46.79Zm1.77-11.57,33.24-17.82-1,8.23h-2l-31.16,16Zm1.46-9.38,1.35-7.71,33.14-21.26-2.09,15.42-33,17.82Zm5.42-30.22,31.88-21.26-2.19,17.09-32.72,21Zm34.8-44.91L272.29,84.3l-31.47,21,3.12-17.19Zm.73-5.73L245,82.22l1.66-9.07,44-48.14h6l3.23,17.82-23.65,17-.42-3.33ZM251.24,47.31,272.7,25H285L248,65.54Zm4-22.3h11.67L252.49,40ZM276.87,64.5l23.86-17.09,2.82,16.05-24.7,16.46Zm2.5,20.11,25-16.67L307,82.74,281.25,99.31Zm2.4,19.28,26.05-16.67,3,17-27.19,14.59Zm2.5,19.28,27.3-14.59,1.36,6.88L285.1,129.84Zm7.09,49.5,29.38-9.8,2,12.82-29.59,8.86Zm4.79,31.78-2.4-15.74,29.6-8.85.83,6-23.45,18.55Zm30.84,0H307.4l17.51-13.86Z"/><path class="cls-2" d="M344.71,42.31,371.59,25h3.65L377,31.57l-32.3,28.56Zm0-17.3h19.17l-19.17,12.3Zm0,40.64,33.45-29.49,5.52,21.67-39,21.47Zm0,18.44,40-22.09,4,15.53-44,14.27Zm29.38,19.18-29.38,7.92V96.29l45-14.7L394,98l-19.59,5.21-.32-1.35Zm0,4.37v20.64l-29.38,12.81V115.46Zm-29.38,38,29.38-12.82V143l-29.38,15.11Zm0,17.09,29.38-15.11v9.58l-29.38,10.43Zm0,9.27,29.38-10.42v12.3l-29.38,4.48Zm0,10.53,29.38-4.48V188.4l-29.38,8.34Zm29.38,21.88H344.71V201l29.38-8.34Zm24.81-87.12-18.76,8.24-4.69-18.34L395,102Zm2.91,11.26-18.55,9.59-2.08-8.55,18.76-8.23Zm-17.5,13.75,46.16-23.86v18.76l-43.56,15.42ZM388,156.72l42.52-15.11v23.66l-38.87,5.94Zm4.69,18.45,37.83-5.73v3l-36.06,10.11Zm2.82,11.46,35-9.9v9.38l-31.89,13Zm35,17.82H399.94l-.32-1.25,30.85-12.61ZM402.13,25h28.34v7L402.13,47.62Zm0,27.41,28.34-15.64v27.1l-28.34,9.27Zm0,25.21,28.34-9.27V88.05l-28.34,7.61Zm0,38.25V99.93l28.34-7.6v11.15Zm0,4.58,28.34-12.4v5.73l-28.34,14.69Z"/><path class="cls-2" d="M458.08,39.08,475.38,25h13.24V38.87L458.08,51Zm0-14.07h10.74l-10.74,8.75Zm0,30.43,30.54-12.09V62.42l-30.54,12.4Zm0,23.86,30.54-12.4V77.32l-30.54,14.9Zm0,17.61L488.62,82v9.9L458.08,117Zm0,25.43,30.54-25.12v21.16l-30.54,13.13Zm0,13.65,30.54-13.13v14.48l-30.54,13Zm0,18.86,30.54-13v10.53l-30.54,17.5Zm0,19.8,30.54-17.51v13.34l-30.54,12.09Zm0,29.8v-17.4L488.62,175v7.09l-28.45,22.4Zm30.54,0H466.94l21.68-17.09Z"/><path class="cls-2" d="M0,223.14c0-1.32,0-2.33.1-3L46.27,180.2q21,.74,29.38,11L0,228.45Zm31.16-5.42a21.34,21.34,0,0,0-.63,5.42v14.38L.42,249.29a41.08,41.08,0,0,1-.42-7V233ZM0,332.45l27.72-11.78h2.81v12.82L0,346Zm0-11.78H17.09L0,328Zm0,29.8L30.53,338v10.21L1,360.79A50.19,50.19,0,0,1,0,350.47ZM39.81,180.2.31,214.28Q1.87,181.46,39.81,180.2ZM1,253.46,30.53,242v-.31a14.82,14.82,0,0,0,1.88,7.91L2,256.9A16.47,16.47,0,0,1,1,253.46ZM2,364.85,30.84,353Q31.47,362,42.93,362q12.3,0,12.3-13.86v-5.31l30.53-12.51v20.11L6.15,374.75A29.46,29.46,0,0,1,2,364.85Zm1.35-104,31.27-7.5q4.36,7.08,14.06,14.69l-36.47,7.81A46,46,0,0,1,3.33,260.86ZM8.65,378.3l76.9-23.45A43,43,0,0,1,83,367.56L22.4,387.88Q12.71,384.34,8.65,378.3Zm6.56-98.79,37.73-8c1.31,1,3,2.29,5.1,3.75,2.71,1.94,4.24,3.06,4.59,3.33l-37,10.11A68.94,68.94,0,0,1,15.21,279.51ZM42.93,391.22q-11.46,0-14.27-1l52.52-17.61Q74.3,391.22,42.93,391.22ZM30.22,291.81l36.16-9.9a55.32,55.32,0,0,1,11.36,13L47.62,307.75Q41.79,300.15,30.22,291.81Zm16.88-82,31.16-15.32q6.26,7.82,7.19,21.67L55.23,227.93v-4.79Q55.23,212,47.1,209.8Zm8.13,115a22.08,22.08,0,0,0-4.9-13.76l29.59-12.5a37.74,37.74,0,0,1,4.59,12.71l-29.28,12Zm0-92.43,30.53-12v16.46l-30.53,7.3Zm30.53,18.24H55.23v-2.19l30.53-7.3ZM55.23,327.76l30.11-12.3a39.17,39.17,0,0,1,.42,6.88v3.54L55.23,338.39Z"/><path class="cls-2" d="M151.2,233.56h-9.9v9.38l-30.53,18.65V240.43l40.12-32h3.33q21.25.1,29.39,8.65l-27.82,17A14.15,14.15,0,0,0,151.2,233.56Zm-40.43-25.12h33.45l-33.45,26.68Zm0,58.05,30.53-18.66v11.36L110.77,272Zm0,10,30.53-12.82v12.61l-30.53,8.86Zm0,13,30.53-8.85v4.9h6.25q5.94,0,7.92-.63,8-2.82,8-11.78v1.05L194,265.34v7.81a39.37,39.37,0,0,1-.73,8.34l-82.53,25.63Zm0,22,81.49-25.32q-3.45,15.94-26.68,22.61-6.87,2-20,2H141.3v7.92l-30.53,13.24Zm0,25,30.53-13.23v16.15l-30.53,10.42Zm0,17.72L141.3,343.8v10.32l-30.53,15.21Zm0,19.69,30.53-15.21v12L110.77,386Zm5.42,14,25.11-12.5v12.5ZM163.5,246.06q0-9.06-2.82-10.11l25.85-15.73q5.63,5.94,6.87,16.88l-29.9,12.71Zm0,8.23,30.42-12.81c.07.41.11,1.94.11,4.58V261l-30.53,8.86Z"/><path class="cls-2" d="M237.27,387.88H206.53l31.58-5.94ZM208.1,377.67l32.3-10.84-1.56,10.74-31.58,5.94Zm64.08-27.92H243.11l-2,12.5-32.3,10.84,1-7.19L298,318.28l1.15,6.14,2.71,17.72-29.39,9.79Zm-59.29-4.07,41.16-21.15h14.28l-.84-6.88,27.93-14.48,1.88,10.73-86.6,46.79Zm1.77-11.57,33.24-17.82-1,8.24h-2l-31.16,16Zm1.46-9.37,1.36-7.72,33.13-21.25-2.08,15.42L215.5,329Zm5.42-30.22,31.89-21.26-2.19,17.09-32.72,21Zm34.8-44.92-2.29,18.14-31.47,21.05,3.13-17.2Zm.73-5.73-30.32,21.78,1.67-9.06,44-48.15h6l3.23,17.82-23.65,17-.42-3.34ZM233,230.74l21.47-22.3h12.29l-37,40.54Zm4-22.3h11.67l-14.38,15Zm21.68,39.5,23.86-17.09,2.81,16.05-24.69,16.46Zm2.5,20.11,25-16.67,2.6,14.79L263,282.74Zm2.39,19.28,26.05-16.68,3,17-27.2,14.59ZM266,306.6,293.34,292l1.35,6.87-27.82,14.38Zm7.09,49.5,29.39-9.79,2,12.81L274.89,368Zm4.79,31.78-2.39-15.73,29.59-8.86.83,6L282.5,387.88Zm30.85,0H289.17L306.67,374Z"/><path class="cls-2" d="M367.32,231.06h-.21q-10.94,0-12,9.27l-30.74,18.24v-15q0-3.44.21-5.52l49.7-31.78q17.29,1.25,24.39,8.23l-28.24,16.88A11,11,0,0,0,367.32,231.06Zm-42.93,32.3,30.53-17.82v11.25l-30.53,16Zm0,14.17,30.53-16v11.67l-30.53,14.18Zm0,14.38,30.53-14.17v13l-30.53,14.18Zm0,17.61,30.53-14.17v13.34L324.39,323Zm0,18,30.53-14.28v5.53l-30.53,17.4Zm0,13.44,30.53-17.4v10.32l-30.53,23.23Zm.52,20.95,30-22.82v16.56l-28.45,13.13A34.61,34.61,0,0,1,324.91,361.94ZM367,206.05l-41.79,26.67Q328.25,206.15,367,206.05ZM328,372.67l27.71-12.82q1.37,6.15,11.47,6.15,12.39,0,12.4-12.4v-4.79l30.53-14.18v14.8L337.83,384A23.76,23.76,0,0,1,328,372.67Zm82.11-18.55q-.11,10.53-3.13,17.2L353.15,390q-8.23-1.47-11.15-3.34Zm-47.94,37.2,42.52-14.79q-6.68,14.58-37.51,14.69C364.85,391.22,363.19,391.25,362.21,391.32Zm17.41-147.76q0-10.11-3.34-10.84l25.53-15.21a24.27,24.27,0,0,1,6.36,11.36l-28.55,15Zm0,5,29.59-15.63a43.63,43.63,0,0,1,.94,10.63v4.06L379.62,261.8Zm30.53,19H379.62v-1.15l30.53-14.17Zm-30.53,62.1h30.53v.42l-30.53,14.17Z"/><path class="cls-2" d="M464.65,233.56v11.56l-30.53,32V248.88l56.79-40.44h8.75l-24,25.12Zm-30.53-3.13,27.82-22h21.78l-49.6,35.33Zm0-22h21l-21,16.68Zm0,74.72,30.53-32v20l-30.53,21.68Zm0,14.8,30.53-21.68v9.28h10.94l-41.47,32Zm30.53,12.81V319l-30.53,35.75V322.86l48.35-37.3H493.2l-21.57,25.21ZM434.12,361.1l30.53-35.74V346.1l-30.53,22.19Zm0,26.78V373.4l30.53-22.2v11.57h15.21l-22.3,25.11Zm29.07,0,22.3-25.11h13.75l-15.52,25.11Zm41.89-102.32v25.21h-28l21.57-25.21Zm6.56-77.12v25.12H481.53l24-25.12Zm0,154.33v25.11h-23l15.53-25.11Z"/></g></g></svg>