<svg xmlns="http://www.w3.org/2000/svg" viewBox="0 0 295.26 295.26"><defs><style>.cls-1{fill:#fdfdfe;}.cls-2{fill:#4576fd;}</style></defs><g id="Layer_2" data-name="Layer 2"><g id="Layer_1-2" data-name="Layer 1"><path class="cls-1" d="M241.78,33.92A211.26,211.26,0,0,0,94.65,127.73,210.27,210.27,0,0,0,.11,152.85C0,151.11,0,149.38,0,147.62A147.63,147.63,0,0,1,241.78,33.92Z"/><path class="cls-2" d="M60.39,243.13a210.93,210.93,0,0,0,1.43,24.64A147.78,147.78,0,0,1,7.67,194.68a170.09,170.09,0,0,1,65.86-25.05A210.7,210.7,0,0,0,60.39,243.13Z"/><path class="cls-1" d="M249.48,254.5a147.77,147.77,0,0,1-142.83,35,172,172,0,0,1,10.76-121.1A171.37,171.37,0,0,1,249.48,254.5Z"/><path class="cls-1" d="M295.26,147.62a147.09,147.09,0,0,1-19.53,73.46,211.56,211.56,0,0,0-134.25-89.41,171,171,0,0,1,130.26-60c.84,0,1.68,0,2.52,0A147,147,0,0,1,295.26,147.62Z"/></g></g></svg>