<svg xmlns="http://www.w3.org/2000/svg" viewBox="0 0 1088.1 213.78"><defs><style>.cls-1{fill:#010c29;}.cls-2{fill:#4576fd;}</style></defs><g id="Layer_2" data-name="Layer 2"><g id="Layer_1-2" data-name="Layer 1"><g id="Layer_2-2" data-name="Layer 2"><g id="Layer_1-2-2" data-name="Layer 1-2"><path class="cls-1" d="M175.05,24.56A153,153,0,0,0,68.53,92.48,152.39,152.39,0,0,0,.08,110.66c0-1.25-.08-2.51-.08-3.78A106.88,106.88,0,0,1,175.05,24.56Z"/><path class="cls-1" d="M43.72,176a151.92,151.92,0,0,0,1,17.84A107,107,0,0,1,5.55,141a123.13,123.13,0,0,1,47.69-18.13A152.47,152.47,0,0,0,43.72,176Z"/><path class="cls-1" d="M180.63,184.26A107,107,0,0,1,77.21,209.59,124.69,124.69,0,0,1,85,121.91,124.12,124.12,0,0,1,180.63,184.26Z"/><path class="cls-1" d="M213.77,106.88a106.47,106.47,0,0,1-14.14,53.18,153.21,153.21,0,0,0-97.2-64.73,123.82,123.82,0,0,1,94.32-43.44h1.82A106.44,106.44,0,0,1,213.77,106.88Z"/><path class="cls-1" d="M289.6,164.67H264.15V45.43H289.6V79.24l-.72,22.43,16.56-20.29,32.21-35.95h29.89L315,105.05l-3.2,2-22.24,24.2Zm79.72,0H340L301.34,99.89l20.47-14.42Z"/><path class="cls-1" d="M395.13,164.67H369.68V77.47h25.45Z"/><path class="cls-1" d="M457.41,164.67H425.2l-30.61-87.2h28.12l12.1,41.82,6.76,30.61,6.59-30.61,12.1-41.82H488Z"/><path class="cls-1" d="M509.91,166.45a29.15,29.15,0,0,1-14.33-3.3,22.46,22.46,0,0,1-9.25-9.61A32.41,32.41,0,0,1,483,138.33V77.47h25.44v52q0,8,2.94,12.64T523,146.73c4,0,7.21-.77,9.52-2.31a12.34,12.34,0,0,0,4.89-6.94,40.49,40.49,0,0,0,1.43-11.75l.89,9.08A49.83,49.83,0,0,1,535.62,150a29.94,29.94,0,0,1-9.52,11.83Q519.88,166.45,509.91,166.45Zm54.45-1.78H538.92V77.47h25.44Z"/><path class="cls-1" d="M624.16,166.45a91.76,91.76,0,0,1-21.89-2.58,63,63,0,0,1-19.13-8.1,47.47,47.47,0,0,1-14.33-14.24L585.72,122a36.31,36.31,0,0,0,10.59,12.19,47.19,47.19,0,0,0,14.14,7,51.14,51.14,0,0,0,14.78,2.31,32.57,32.57,0,0,0,9.16-1.16,13.42,13.42,0,0,0,6.32-3.65A9.29,9.29,0,0,0,643,132.1a10.44,10.44,0,0,0-2.58-7.39,19.65,19.65,0,0,0-7.83-4.62,96.09,96.09,0,0,0-13.26-3.47l-11.56-2.49a95.12,95.12,0,0,1-13.35-3.74,41.63,41.63,0,0,1-11.57-6.32,28.31,28.31,0,0,1-8.1-10,32.81,32.81,0,0,1-2.93-14.51q0-11.75,6-19.66A36.34,36.34,0,0,1,593.91,48a60.13,60.13,0,0,1,22.24-4q16.73,0,29.81,6a50,50,0,0,1,20.55,16.73l-17.26,19.4A39.65,39.65,0,0,0,633.77,72a42.89,42.89,0,0,0-19.93-5,23.3,23.3,0,0,0-8.19,1.33A12.76,12.76,0,0,0,600.13,72a8.88,8.88,0,0,0-2,5.78q0,6.6,5.42,9.61a56.8,56.8,0,0,0,14.69,5.16l13.52,3.21A97.09,97.09,0,0,1,647,100.6a46.89,46.89,0,0,1,11.83,6.94,27.49,27.49,0,0,1,7.65,10,33.41,33.41,0,0,1,2.67,13.88q0,11.39-5.87,19.22a36,36,0,0,1-16,11.83A62.69,62.69,0,0,1,624.16,166.45Z"/><path class="cls-1" d="M698.72,197.77H673.28V77.47h25.44Zm26.7-31.32q-10.14,0-15.84-4.63A25.69,25.69,0,0,1,701.39,150,70.2,70.2,0,0,1,698,134.77l.71-9.08a31.75,31.75,0,0,0,1.87,11.75,13.94,13.94,0,0,0,5.61,6.94,16.93,16.93,0,0,0,9.08,2.31,16.4,16.4,0,0,0,13.8-6.69q5.07-6.67,5.07-19,0-12.63-5.07-19.13a16.57,16.57,0,0,0-13.79-6.5,17.47,17.47,0,0,0-9.08,2.22,13.62,13.62,0,0,0-5.61,6.86,31.73,31.73,0,0,0-1.87,11.74l-.71-9.07a63.05,63.05,0,0,1,3.65-15.31A26.13,26.13,0,0,1,710.38,80q6-4.55,16.11-4.54a30,30,0,0,1,17.7,5.34q7.57,5.34,11.66,15.48T759.94,121q0,14.25-4.18,24.47T743.84,161a31.61,31.61,0,0,1-18.42,5.41Z"/><path class="cls-1" d="M788.77,164.67H763.32V45.43h25.45Zm55.88,0H819.2v-52q0-8-2.76-12.63t-11.65-4.63q-6.06,0-9.52,2.31a12.8,12.8,0,0,0-5,6.94,38.29,38.29,0,0,0-1.51,11.75l-.71-9.08A52.36,52.36,0,0,1,792.14,92a28.4,28.4,0,0,1,9.52-11.84q6.35-4.5,16.34-4.5,12.45,0,19.57,7.29t7.12,20.82Z"/><path class="cls-1" d="M892,166.45q-13.89,0-23.94-5.7a38.17,38.17,0,0,1-15.39-16,50.71,50.71,0,0,1-5.34-23.67q0-13.53,5.34-23.76a39.21,39.21,0,0,1,15-15.93,42.82,42.82,0,0,1,22.24-5.69q13.89,0,23.14,5.51a35.21,35.21,0,0,1,13.88,15A46.72,46.72,0,0,1,931.5,117q0,2.85-.27,6a39.32,39.32,0,0,1-.62,4.72H865.47V113.06h47.34l-4.09,3.38q0-10.32-4.63-15.75T890,95.26q-8.89,0-14,5.43T871,117v6.59q0,7.65,2.67,12.54a16.89,16.89,0,0,0,7.56,7.3,24.85,24.85,0,0,0,11.12,2.4,29.75,29.75,0,0,0,10.5-1.6,19,19,0,0,0,7.12-4.54,21.89,21.89,0,0,0,4.45-6.67L929.9,148.5q-4.8,6.94-14,12.46T892,166.45Z"/><path class="cls-1" d="M961,164.67H935.59V77.47H961Zm0-46.1-.72-9.07a62.33,62.33,0,0,1,2.67-12,42.4,42.4,0,0,1,5.43-11A26.29,26.29,0,0,1,977,78.63a24.1,24.1,0,0,1,12.1-2.93q9.79,0,14.86,5.78t5.07,16.1a41.7,41.7,0,0,1-1.69,12.37,33.9,33.9,0,0,1-3.29,7.92H979.54a22,22,0,0,0,4.36-6.58,18.77,18.77,0,0,0,1.87-7.83A10.42,10.42,0,0,0,984,97.22c-1.19-1.66-3.2-2.49-6-2.49a13.54,13.54,0,0,0-8.19,2.93,20.65,20.65,0,0,0-6.31,8.28A30.64,30.64,0,0,0,961,118.57Z"/><path class="cls-1" d="M1048.59,166.45q-13.87,0-23.93-5.7a38,38,0,0,1-15.4-16,50.71,50.71,0,0,1-5.34-23.67q0-13.53,5.34-23.76a39.21,39.21,0,0,1,15-15.93,42.83,42.83,0,0,1,22.25-5.69q13.88,0,23.13,5.51a35.15,35.15,0,0,1,13.88,15A46.6,46.6,0,0,1,1088.1,117q0,2.85-.27,6a39.32,39.32,0,0,1-.62,4.72h-65.13V113.06h47.33l-4.09,3.38q0-10.32-4.63-15.75t-14.06-5.43q-8.89,0-14,5.43t-5,16.31v6.59q0,7.65,2.67,12.54a16.81,16.81,0,0,0,7.57,7.3,24.85,24.85,0,0,0,11.12,2.4,29.75,29.75,0,0,0,10.5-1.6,19.06,19.06,0,0,0,7.12-4.54A21.62,21.62,0,0,0,1071,133l15.49,15.48a44.46,44.46,0,0,1-14,12.46Q1063.37,166.46,1048.59,166.45Z"/><rect class="cls-1" x="369.68" y="45.43" width="25.45" height="25.45" rx="12.72"/><path class="cls-1" d="M175.05,24.56A153,153,0,0,0,68.53,92.48,152.39,152.39,0,0,0,.08,110.66c0-1.25-.08-2.51-.08-3.78A106.88,106.88,0,0,1,175.05,24.56Z"/><path class="cls-2" d="M43.72,176a151.92,151.92,0,0,0,1,17.84A107,107,0,0,1,5.55,141a123.13,123.13,0,0,1,47.69-18.13A152.47,152.47,0,0,0,43.72,176Z"/><path class="cls-1" d="M180.63,184.26A107,107,0,0,1,77.21,209.59,124.69,124.69,0,0,1,85,121.91,124.12,124.12,0,0,1,180.63,184.26Z"/><path class="cls-1" d="M213.77,106.88a106.47,106.47,0,0,1-14.14,53.18,153.21,153.21,0,0,0-97.2-64.73,123.82,123.82,0,0,1,94.32-43.44h1.82A106.44,106.44,0,0,1,213.77,106.88Z"/><path class="cls-1" d="M289.6,164.67H264.15V45.43H289.6V79.24l-.72,22.43,16.56-20.29,32.21-35.95h29.89L315,105.05l-3.2,2-22.24,24.2Zm79.72,0H340L301.34,99.89l20.47-14.42Z"/><path class="cls-1" d="M395.13,164.67H369.68V77.47h25.45Z"/><path class="cls-1" d="M457.41,164.67H425.2l-30.61-87.2h28.12l12.1,41.82,6.76,30.61,6.59-30.61,12.1-41.82H488Z"/><path class="cls-1" d="M509.91,166.45a29.15,29.15,0,0,1-14.33-3.3,22.46,22.46,0,0,1-9.25-9.61A32.41,32.41,0,0,1,483,138.33V77.47h25.44v52q0,8,2.94,12.64T523,146.73c4,0,7.21-.77,9.52-2.31a12.34,12.34,0,0,0,4.89-6.94,40.49,40.49,0,0,0,1.43-11.75l.89,9.08A49.83,49.83,0,0,1,535.62,150a29.94,29.94,0,0,1-9.52,11.83Q519.88,166.45,509.91,166.45Zm54.45-1.78H538.92V77.47h25.44Z"/><path class="cls-1" d="M624.16,166.45a91.76,91.76,0,0,1-21.89-2.58,63,63,0,0,1-19.13-8.1,47.47,47.47,0,0,1-14.33-14.24L585.72,122a36.31,36.31,0,0,0,10.59,12.19,47.19,47.19,0,0,0,14.14,7,51.14,51.14,0,0,0,14.78,2.31,32.57,32.57,0,0,0,9.16-1.16,13.42,13.42,0,0,0,6.32-3.65A9.29,9.29,0,0,0,643,132.1a10.44,10.44,0,0,0-2.58-7.39,19.65,19.65,0,0,0-7.83-4.62,96.09,96.09,0,0,0-13.26-3.47l-11.56-2.49a95.12,95.12,0,0,1-13.35-3.74,41.63,41.63,0,0,1-11.57-6.32,28.31,28.31,0,0,1-8.1-10,32.81,32.81,0,0,1-2.93-14.51q0-11.75,6-19.66A36.34,36.34,0,0,1,593.91,48a60.13,60.13,0,0,1,22.24-4q16.73,0,29.81,6a50,50,0,0,1,20.55,16.73l-17.26,19.4A39.65,39.65,0,0,0,633.77,72a42.89,42.89,0,0,0-19.93-5,23.3,23.3,0,0,0-8.19,1.33A12.76,12.76,0,0,0,600.13,72a8.88,8.88,0,0,0-2,5.78q0,6.6,5.42,9.61a56.8,56.8,0,0,0,14.69,5.16l13.52,3.21A97.09,97.09,0,0,1,647,100.6a46.89,46.89,0,0,1,11.83,6.94,27.49,27.49,0,0,1,7.65,10,33.41,33.41,0,0,1,2.67,13.88q0,11.39-5.87,19.22a36,36,0,0,1-16,11.83A62.69,62.69,0,0,1,624.16,166.45Z"/><path class="cls-1" d="M698.72,197.77H673.28V77.47h25.44Zm26.7-31.32q-10.14,0-15.84-4.63A25.69,25.69,0,0,1,701.39,150,70.2,70.2,0,0,1,698,134.77l.71-9.08a31.75,31.75,0,0,0,1.87,11.75,13.94,13.94,0,0,0,5.61,6.94,16.93,16.93,0,0,0,9.08,2.31,16.4,16.4,0,0,0,13.8-6.69q5.07-6.67,5.07-19,0-12.63-5.07-19.13a16.57,16.57,0,0,0-13.79-6.5,17.47,17.47,0,0,0-9.08,2.22,13.62,13.62,0,0,0-5.61,6.86,31.73,31.73,0,0,0-1.87,11.74l-.71-9.07a63.05,63.05,0,0,1,3.65-15.31A26.13,26.13,0,0,1,710.38,80q6-4.55,16.11-4.54a30,30,0,0,1,17.7,5.34q7.57,5.34,11.66,15.48T759.94,121q0,14.25-4.18,24.47T743.84,161a31.61,31.61,0,0,1-18.42,5.41Z"/><path class="cls-1" d="M788.77,164.67H763.32V45.43h25.45Zm55.88,0H819.2v-52q0-8-2.76-12.63t-11.65-4.63q-6.06,0-9.52,2.31a12.8,12.8,0,0,0-5,6.94,38.29,38.29,0,0,0-1.51,11.75l-.71-9.08A52.36,52.36,0,0,1,792.14,92a28.4,28.4,0,0,1,9.52-11.84q6.35-4.5,16.34-4.5,12.45,0,19.57,7.29t7.12,20.82Z"/><path class="cls-1" d="M892,166.45q-13.89,0-23.94-5.7a38.17,38.17,0,0,1-15.39-16,50.71,50.71,0,0,1-5.34-23.67q0-13.53,5.34-23.76a39.21,39.21,0,0,1,15-15.93,42.82,42.82,0,0,1,22.24-5.69q13.89,0,23.14,5.51a35.21,35.21,0,0,1,13.88,15A46.72,46.72,0,0,1,931.5,117q0,2.85-.27,6a39.32,39.32,0,0,1-.62,4.72H865.47V113.06h47.34l-4.09,3.38q0-10.32-4.63-15.75T890,95.26q-8.89,0-14,5.43T871,117v6.59q0,7.65,2.67,12.54a16.89,16.89,0,0,0,7.56,7.3,24.85,24.85,0,0,0,11.12,2.4,29.75,29.75,0,0,0,10.5-1.6,19,19,0,0,0,7.12-4.54,21.89,21.89,0,0,0,4.45-6.67L929.9,148.5q-4.8,6.94-14,12.46T892,166.45Z"/><path class="cls-1" d="M961,164.67H935.59V77.47H961Zm0-46.1-.72-9.07a62.33,62.33,0,0,1,2.67-12,42.4,42.4,0,0,1,5.43-11A26.29,26.29,0,0,1,977,78.63a24.1,24.1,0,0,1,12.1-2.93q9.79,0,14.86,5.78t5.07,16.1a41.7,41.7,0,0,1-1.69,12.37,33.9,33.9,0,0,1-3.29,7.92H979.54a22,22,0,0,0,4.36-6.58,18.77,18.77,0,0,0,1.87-7.83A10.42,10.42,0,0,0,984,97.22c-1.19-1.66-3.2-2.49-6-2.49a13.54,13.54,0,0,0-8.19,2.93,20.65,20.65,0,0,0-6.31,8.28A30.64,30.64,0,0,0,961,118.57Z"/><path class="cls-1" d="M1048.59,166.45q-13.87,0-23.93-5.7a38,38,0,0,1-15.4-16,50.71,50.71,0,0,1-5.34-23.67q0-13.53,5.34-23.76a39.21,39.21,0,0,1,15-15.93,42.83,42.83,0,0,1,22.25-5.69q13.88,0,23.13,5.51a35.15,35.15,0,0,1,13.88,15A46.6,46.6,0,0,1,1088.1,117q0,2.85-.27,6a39.32,39.32,0,0,1-.62,4.72h-65.13V113.06h47.33l-4.09,3.38q0-10.32-4.63-15.75t-14.06-5.43q-8.89,0-14,5.43t-5,16.31v6.59q0,7.65,2.67,12.54a16.81,16.81,0,0,0,7.57,7.3,24.85,24.85,0,0,0,11.12,2.4,29.75,29.75,0,0,0,10.5-1.6,19.06,19.06,0,0,0,7.12-4.54A21.62,21.62,0,0,0,1071,133l15.49,15.48a44.46,44.46,0,0,1-14,12.46Q1063.37,166.46,1048.59,166.45Z"/><rect class="cls-2" x="369.68" y="45.43" width="25.45" height="25.45" rx="12.72"/></g></g></g></g></svg>