<svg xmlns="http://www.w3.org/2000/svg" viewBox="0 0 865.18 479.54"><defs><style>.cls-1{fill:#6b7280;}.cls-2{fill:none;stroke:#6b7280;stroke-width:6.27px;}</style></defs><g id="Layer_2" data-name="Layer 2"><g id="Layer_1-2" data-name="Layer 1"><path class="cls-1" d="M89.47,358.34c-.19-3.65-.74-6.89-.46-10.07.77-8.74,7-15.11,16.26-11.94,4.88,1.66,6.8,5.54,7.09,10.36.17,2.75,0,5.52,0,8.42,2.27-1.42,4.7-3.1,7.28-4.51,7.66-4.19,16.66.34,17.34,8.66.39,4.73-3.9,11-9.13,13.41-1.82.83-3.64,1.62-6.12,2.72,2.5,1.4,4.53,2.43,6.44,3.63a14.71,14.71,0,0,1,7,9.4c1,4.68-.87,8.48-4.62,11.06a10.74,10.74,0,0,1-12.07.22c-3.12-1.84-5.94-4.2-9.1-6.48.49,2.72,1.29,5.31,1.35,7.92a30.51,30.51,0,0,1-.92,9.21c-1.36,4.52-4.87,6.8-9.64,6.9a9.68,9.68,0,0,1-9.4-5.21,16.49,16.49,0,0,1-2.22-11.25c.15-.85.18-1.71.33-3.28-2.36,2-4.2,3.51-6.06,5-3.37,2.74-9.43,3.28-12.94,1.17a12.3,12.3,0,0,1-2.36-19.3c2.93-3,6.64-5.18,10.38-8a18.79,18.79,0,0,1-3.25-1.25c-3.27-2-6.86-3.77-9.58-6.4-3.3-3.18-3.3-9.18-.86-12.76,2.89-4.25,8.3-6.5,12.82-5.08a32,32,0,0,1,6.72,2.95A54.88,54.88,0,0,1,89.47,358.34ZM107.74,376c0-4.75-3.15-8.09-7.53-8.08a8.62,8.62,0,0,0-8.67,8.75c0,5.49,3.11,8.68,8.44,8.68C104.71,385.35,107.79,381.64,107.74,376Z"/><path class="cls-1" d="M71.77,235.45c2,6.53,10.28,8.79,10.28,18.82,0,11.3-10.28,18.82-19.57,18.82-36.89,0-44.91-99.62-44.91-127.22a421.87,421.87,0,0,1,3.51-50.44C10,94.43,0,90.67,0,77.37c0-8.28,6-18.32,12-24.84,7.53-7.78,37.14-32.63,45.42-35.64,50.44-15.81,195.73-45.67,195.73,53,0,60-79,97.61-125.72,109.66-19.82,5.52-39.39,10-59,14.55C69.26,206.6,68,223.91,71.77,235.45Zm97.11-105.64c68.5-43.41,57-92.34-19.58-92.34C134,37.47,80.55,41,78.54,61.31c-3.26,33.37-7,67-9.28,99.62C98.62,162.18,138,149.38,168.88,129.81Z"/><path class="cls-1" d="M327.71,67.58c0,4.52-2.51,6.78-7.53,8.28-17.56,4.52-31.87,33.12-31.87,48.68,0,10.54,7.78,24.09,22.08,24.09,11.3,0,26.85-15,26.85-24.59,0-13.8-29.1-15.31-29.1-27.85,0-6.28,6.52-11.55,14.05-11.55,21.83,0,40.65,15.81,40.65,34.88,0,24.09-27.6,53.2-56.46,53.2-75.78,0-60.22-116.43,1.76-116.43C315.41,56.29,327.71,59.8,327.71,67.58Z"/><path class="cls-1" d="M381.15,124c0-44.67,32.12-94.85,80.55-94.85,18.07,0,44.16,9,44.16,30.86,0,7.53-3.51,14.81-12,14.81-10.29,0-10.54-12.55-27.1-12.55-30.87,0-50.44,32.12-50.44,60.22,0,24.85,12.8,47.43,40.65,47.43,22.59,0,52.95-17.56,58-17.56,6.27,0,11.54,4.51,11.54,11.29,0,22.08-54.2,39.9-71.77,39.9C410.26,203.59,381.15,166.2,381.15,124Z"/><path class="cls-1" d="M612.76,65.82a12,12,0,0,1,12.29,12.05c0,11.54-27.35,34.63-36.13,44.41,8.28,3,33.62,9.29,33.62,19.58,0,5.52-3.76,10.79-10.29,10.79-12,0-24.34-5.27-36.13-9.29-2.51-.75-4.52-1.5-4.52,2.26a306.18,306.18,0,0,0,3.52,43.16c.75,7.53,6.77,14.05,6.77,21.58,0,5.52-5.77,10.54-11.29,10.54-27.1,0-29.86-90.84-29.86-107.65,0-20.07,5.27-100.87,33.12-100.87,6,0,12,4.76,12,11.29,0,3-1,6-1.51,8.53-5.27,15.81-7.78,33.12-9.79,50.19-.75,6.27-1.5,12.29,5.27,5.52C588.67,78.87,601.46,65.82,612.76,65.82Z"/><path class="cls-1" d="M670.21,102c-5.52,15.05-7,42.41,14.06,42.41,15.8,0,28.6-11.55,34.88-11.55,5,0,9.53,4.52,9.53,9,0,10.79-6.77,18.06-15.81,22.58-35.88,18.07-76.53,3.26-76.53-39.15,0-27.85,18.82-62.48,48.93-62.48,17.31,0,38.14,13.55,38.14,31.87,0,17.07-16.31,32.87-32.87,32.87-9,0-15.31-5.77-15.31-15,0-8.28,4.52-11,10-12.8,8.78-2.76,8-8.28-1.76-8.28C676.24,91.42,672.47,95.94,670.21,102Z"/><path class="cls-1" d="M739.72,106c0-15,20.33-8.53,22.58-19.57,3.52-16.56,8.79-60.47,30.12-60.47,7.52,0,14.3,4.76,14.3,13,0,15.56-5.52,33.63-8.28,49.69h11c8.28,0,24.84.5,24.84,12.55,0,14.3-27.1,11.54-37.64,12.29-3,45.92,6,82.56,44.42,36.14,5.52-6.78,10-12.3,13.8-12.3a10.12,10.12,0,0,1,10.28,10c0,7.27-5,16.31-11.29,25.34-51.69,73.77-100.62,13.8-95.35-53.2C749.25,118.52,739.72,118.52,739.72,106Z"/><path class="cls-1" d="M177.68,327.35c0-53.5,68-116.86,120.76-116.86,26,0,55.32,14.8,55.32,44.41,0,26.74-42.6,69.34-68.57,69.34-8.31,0-14-6-14-13.77,0-5.71,3.89-8.83,8.57-11.68,12.73-5.72,21-11.69,26.49-17.15,9.35-9.34,17.14-28-2.34-28-29.34,0-81.54,48-81.54,76.87,0,16.62,108.29,21.3,108.29,73.5,0,43.63-81,75.57-116.09,75.57-11.94,0-26-8.05-26-21,0-9.61,6.24-15.58,15.59-17.4,18.69,0,49.08-6,67.78-19.47,21-14.81,18.18-25.46-6.75-34.29C231.69,375.92,177.68,372.54,177.68,327.35Z"/><path class="cls-1" d="M422.38,290.57c0,4.52-2.51,6.78-7.53,8.28C397.28,303.37,383,332,383,347.53c0,10.54,7.78,24.09,22.08,24.09,11.29,0,26.85-15.05,26.85-24.59,0-13.8-29.11-15.3-29.11-27.85,0-6.27,6.53-11.54,14.06-11.54,21.83,0,40.65,15.8,40.65,34.88,0,24.08-27.61,53.19-56.46,53.19-75.78,0-60.23-116.43,1.75-116.43C410.08,279.28,422.38,282.79,422.38,290.57Z"/><path class="cls-1" d="M557.87,283.05c7.28,0,11.8,6,11.8,13.29,0,12.8-5.27,25.85-5.27,39.9,0,33.38,13.8,23.59,13.8,36.39,0,8.78-6.27,13.3-13.8,13.3-14,0-19.32-9.79-26.85-20.08-5.52,13.3-16.81,32.87-33.12,32.87-22.59,0-30.37-26.34-30.37-44.91,0-30.37,16.82-65,51.19-65,6.78,0,12.3,2.25,19.07,3C547.84,287.56,551.85,283.05,557.87,283.05ZM526,319.18c-17.07,0-22.34,25.34-22.34,38.39,0,20.33,7.28,15.56,14.05.75,6-12,9-24.84,14.31-37.89A20,20,0,0,0,526,319.18Z"/><path class="cls-1" d="M637.16,395c0,10.79.5,22.08,3,33.12,2,8.53,10.29,7.78,10.29,16.81s-6.52,13.3-14.05,13.3c-30.36,0-33.88-81.8-32.62-99.36l-.5-5.27-.76-.76c-5.52-.75-11.29-3-11.29-10.54,0-15.05,15.06-38.39,25.35-48.68,8.53-9.28,14.3-13.8,27.35-13.8,25.34,0,49.43,16.06,49.43,44.67,0,33.62-25.34,53.2-52.69,63.73a14.19,14.19,0,0,0-3.52,2.26Zm.5-39.15,1.76.26c11.79-6,25.6-19.58,25.6-34.13,0-12.8-20.33-27.6-21.83-8.78Z"/><path class="cls-2" d="M855,114.06a32.6,32.6,0,0,0,2.6-12.85c0-15.38-9.81-28-25.61-33a50.55,50.55,0,0,0-5.28-1.36C828.55,57.67,830,48.33,830,39c0-20.37-16.51-36.33-37.58-36.33-10.88,0-20.84,4.46-28.81,12.89-5.09,5.39-9.28,12.29-12.82,21.08-4.85,12.07-7.56,25.5-9.52,35.91-10.43-20.18-34.15-33-56-33-17,0-31.77,6.86-43.47,17.69a35.39,35.39,0,0,0-29-14.68,39.57,39.57,0,0,0-7.43.71c.37-1.24.75-2.47,1.16-3.69l.46-1.37.28-1.42c.08-.41.19-.83.3-1.27a48.76,48.76,0,0,0,1.66-11.83c0-19.07-15.85-34.58-35.33-34.58-8.72,0-25.15,3.23-37.25,24.86-4.27,7.64-7.79,17-10.7,28.56C516.57,18.62,488.46,5.9,461.7,5.9c-45.25,0-79.67,32.43-95,72.09-.29-.26-.57-.53-.87-.78A65.21,65.21,0,0,0,351,67.71v-.13c0-12.61-7.67-23.71-20.53-29.68A54.87,54.87,0,0,0,308.14,33,68.7,68.7,0,0,0,273,42.5,80.05,80.05,0,0,0,237.09-5.38c-19.22-11.88-45.09-17.9-76.87-17.9-48.64,0-96.28,13.74-109.72,18l-.5.16L49.5-5C34.18.58-.26,31.76-4.69,36.33l-.19.2-.18.2C-9.34,41.36-23.28,58-23.28,77.37c0,6.59,1.72,24.55,19.19,34.59-1.1,12.4-1.63,23.45-1.63,33.91,0,13.73,1.93,48,9.24,79.26,4.25,18.24,9.8,33.07,16.49,44.06,13.66,22.47,30.63,27.19,42.47,27.19a44,44,0,0,0,28.67-11,41,41,0,0,0,14.19-31.11c0-15-8-23.77-12-28a87.6,87.6,0,0,1-1.16-13.79c13.58-3.2,27.4-6.59,41.29-10.45,30.42-7.89,72.77-25.41,103.48-53a72.17,72.17,0,0,0,12.81,22.58,66.94,66.94,0,0,0,25.35,18.53c-24.7,5.93-50.7,20.68-72.94,41.91-30.39,29-47.82,63.75-47.82,95.33,0,16.93,5.63,40.61,32.44,57.3,15.66,9.75,34.55,14.73,51.21,19.12,4.44,1.17,8.73,2.3,12.71,3.45-13.65,6.71-33,10.6-46.58,10.6h-2.25l-2.2.43c-20.91,4.06-34.42,19.86-34.42,40.25,0,13.39,6.59,25.86,18.09,34.22a54.12,54.12,0,0,0,31.16,10.1c22.64,0,55.73-9.75,82.35-24.27,36.77-20.06,57-46.55,57-74.58,0-.09,0-.16,0-.25C364.2,411.9,379.37,419,401.05,419s42.93-10.89,58.11-26.94c.35.72.7,1.44,1.09,2.16C469.7,411.88,485.8,422,504.43,422c14,0,26.72-6.42,37.4-18.52a44.93,44.93,0,0,0,22.57,5.72,38.62,38.62,0,0,0,18.53-4.59c.09.71.19,1.43.29,2.15,4.11,28.87,11.61,48.81,22.92,61,10.58,11.36,22.3,13.75,30.27,13.75,21.28,0,37.34-15.73,37.34-36.59a33.14,33.14,0,0,0-11.57-25.43,110.76,110.76,0,0,1-1.54-14.56c36.24-17.47,56-45.68,56-80.45,0-38.74-31.27-67.95-72.72-67.95-22.74,0-34.34,10.32-44.19,21a108.77,108.77,0,0,0-8,9.19c-4-15.68-17.44-26.92-33.89-26.92a35.23,35.23,0,0,0-21,6.94,62.27,62.27,0,0,0-11.62-1.17c-28.55,0-49.33,15.85-61.58,37.63-1-1-2.09-2-3.2-3a65.21,65.21,0,0,0-14.81-9.5v-.13c0-12.61-7.68-23.7-20.53-29.68A54.91,54.91,0,0,0,402.8,256a69,69,0,0,0-26.15,5.05,52.62,52.62,0,0,0,.39-6.15c0-21.22-9.89-39.83-27.86-52.39a82.53,82.53,0,0,0-20.48-10.26A89,89,0,0,0,366.36,167a102.2,102.2,0,0,0,17.4,28,93,93,0,0,0,70.91,31.89c13,0,34.46-5.67,52.17-13.78A115.06,115.06,0,0,0,527.77,201a106.64,106.64,0,0,0,5.61,15.28c4.83,10.43,16.1,27.94,37.22,27.94,18.74,0,34.58-15.49,34.58-33.82,0-9.06-3.32-16.32-5.51-21.12-.51-1.1-1.18-2.58-1.44-3.32l-.07-.49q-.84-5.76-1.47-11.22a75.38,75.38,0,0,0,15.56,1.72,33.52,33.52,0,0,0,16.63-4.34,63.65,63.65,0,0,0,5.18,5.48c12.54,11.75,29.74,18.22,48.43,18.21a91.47,91.47,0,0,0,40.79-10,55.61,55.61,0,0,0,17.88-13.8c4.67,14.92,11.8,28.11,21,38.07,12.32,13.32,27.46,20.36,43.8,20.36,30,0,53-23.83,67-43.9,7.19-10.36,15.45-24.11,15.45-38.62A33.48,33.48,0,0,0,855,114.06Zm-698.6-3.91c-18.87,12-41.63,21.08-61.75,25.19,1.38-15.43,3-31,4.5-46.3q1.05-10.32,2.08-20.63c7.73-3.74,28.54-7.66,48.06-7.66,28.49,0,40.36,7.87,41.4,11.46C191.94,76.5,185,92,156.41,110.15ZM308.68,342.27a101.72,101.72,0,0,0,18.78-10.73,96.27,96.27,0,0,0-.68,11.38,92.33,92.33,0,0,0,.67,11.11,105.34,105.34,0,0,0-11.06-7.53C313.88,345,311.3,343.61,308.68,342.27Zm185.51-207c-10,4.27-26.69,11.43-37.26,11.43-7.32,0-10.4-2.8-12.26-5.25-3.24-4.24-5.1-11.13-5.1-18.9,0-15.42,10.33-36.93,27.15-36.93h0c.35.31.77.71,1.11,1,4,3.74,12.21,11.51,26,11.51a34,34,0,0,0,24.92-10.33c-1,10.91-1.29,20.12-1.29,25.44,0,4,.12,9.5.4,16-1-.08-2-.13-3-.13C508.51,129.11,503.43,131.29,494.19,135.25Zm325.58,3.49c-.07-.9-.13-1.86-.18-2.86,1-.11,2-.23,3-.37Q821.08,137.28,819.77,138.74Z"/></g></g></svg>