<svg xmlns="http://www.w3.org/2000/svg" viewBox="0 0 336.01 77.64"><defs><style>.cls-1{fill:#6b7280;}</style></defs><g id="Layer_2" data-name="Layer 2"><g id="Layer_1-2" data-name="Layer 1"><path class="cls-1" d="M54,17.13a50,50,0,0,1-38,17.47A50,50,0,0,1,.29,32.1,28.09,28.09,0,0,1,54,17.13Z"/><path class="cls-1" d="M56.18,28.09c0,.25,0,.51,0,.76a26.91,26.91,0,0,1-4.31,13.74c-.32.5-.63,1-.89,1.35l-2.16,3.12L29,77.07a1.27,1.27,0,0,1-2.12,0L11.86,54.2c1.45-.17,2.88-.39,4.29-.68a50.21,50.21,0,0,0,38.21-35.4A28.18,28.18,0,0,1,56.18,28.09Z"/><circle class="cls-1" cx="58.81" cy="11.88" r="3.27"/><path class="cls-1" d="M109.75,11H81.25V4.35h28.5ZM99.25,39.53H91.74V4.35h7.51Z"/><path class="cls-1" d="M120.2,40.05a13.28,13.28,0,0,1-6.8-1.7,11.62,11.62,0,0,1-4.49-4.75,14.86,14.86,0,0,1-1.57-6.93,14.82,14.82,0,0,1,1.57-7A11.63,11.63,0,0,1,113.4,15a13.28,13.28,0,0,1,6.8-1.7,13.74,13.74,0,0,1,7,1.7,11.69,11.69,0,0,1,4.57,4.73,14.59,14.59,0,0,1,1.6,7,14.63,14.63,0,0,1-1.6,6.93,11.68,11.68,0,0,1-4.57,4.75A13.74,13.74,0,0,1,120.2,40.05Zm.1-6.09a5.36,5.36,0,0,0,2.84-.73A4.9,4.9,0,0,0,125,30.89a11,11,0,0,0,.68-4.22,11.06,11.06,0,0,0-.68-4.23,4.9,4.9,0,0,0-1.89-2.34,5.36,5.36,0,0,0-2.84-.73,5.22,5.22,0,0,0-2.78.73,4.9,4.9,0,0,0-1.89,2.34,11.06,11.06,0,0,0-.68,4.23,11,11,0,0,0,.68,4.22,4.9,4.9,0,0,0,1.89,2.34A5.22,5.22,0,0,0,120.3,34Z"/><path class="cls-1" d="M153,40.05a26.89,26.89,0,0,1-6.46-.76,18.56,18.56,0,0,1-5.64-2.39,13.89,13.89,0,0,1-4.23-4.2l5-5.77a10.56,10.56,0,0,0,3.12,3.59A14,14,0,0,0,149,32.6a15.12,15.12,0,0,0,4.35.68,9.7,9.7,0,0,0,2.71-.34,4.06,4.06,0,0,0,1.86-1.08,2.75,2.75,0,0,0,.68-1.94,3,3,0,0,0-.76-2.18,5.74,5.74,0,0,0-2.31-1.36,29.09,29.09,0,0,0-3.91-1l-3.41-.73a28.89,28.89,0,0,1-3.94-1.1,12.39,12.39,0,0,1-3.41-1.87,8.26,8.26,0,0,1-2.39-2.94,9.58,9.58,0,0,1-.87-4.28,9.39,9.39,0,0,1,1.76-5.8,10.71,10.71,0,0,1,4.75-3.51,17.69,17.69,0,0,1,6.57-1.19,20.73,20.73,0,0,1,8.79,1.79,14.78,14.78,0,0,1,6.06,4.93l-5.09,5.73a11.75,11.75,0,0,0-4.57-4.2A12.62,12.62,0,0,0,150,10.71a6.88,6.88,0,0,0-2.41.39,3.76,3.76,0,0,0-1.63,1.1,2.6,2.6,0,0,0-.58,1.71,3,3,0,0,0,1.6,2.83,16.6,16.6,0,0,0,4.34,1.53l4,.94a28.93,28.93,0,0,1,4.49,1.42,13.61,13.61,0,0,1,3.49,2.05,8,8,0,0,1,2.26,2.94,9.72,9.72,0,0,1,.79,4.09,9.21,9.21,0,0,1-1.73,5.67,10.65,10.65,0,0,1-4.73,3.49A18.4,18.4,0,0,1,153,40.05Z"/><path class="cls-1" d="M178.36,40.05a8.57,8.57,0,0,1-4.22-1,6.61,6.61,0,0,1-2.73-2.83,9.6,9.6,0,0,1-1-4.49v-18h7.5V29.13a6.89,6.89,0,0,0,.87,3.73c.58.91,1.72,1.37,3.44,1.37a5,5,0,0,0,2.81-.69,3.61,3.61,0,0,0,1.44-2.05,11.92,11.92,0,0,0,.42-3.46l.26,2.68A14.47,14.47,0,0,1,186,35.2a9,9,0,0,1-2.81,3.49A7.83,7.83,0,0,1,178.36,40.05Zm16.07-.52h-7.51V13.8h7.51Z"/><path class="cls-1" d="M207.24,39.53h-7.51V13.8h7.51Zm16.48,0h-7.51V24.2a7.3,7.3,0,0,0-.81-3.73c-.54-.91-1.69-1.36-3.44-1.36a5,5,0,0,0-2.81.68,3.78,3.78,0,0,0-1.47,2.05,11.25,11.25,0,0,0-.44,3.46L207,22.62a15.2,15.2,0,0,1,1.2-4.51A8.31,8.31,0,0,1,211,14.62a8,8,0,0,1,4.8-1.34,7.73,7.73,0,0,1,5.78,2.15,8.44,8.44,0,0,1,2.1,6.14Z"/><path class="cls-1" d="M238.26,49.82q-5.94,0-9-1.55c-2-1-3.07-2.32-3.07-3.86a3,3,0,0,1,.78-2.1A5.54,5.54,0,0,1,229.05,41a11,11,0,0,1,2.81-.66A6.55,6.55,0,0,1,229.15,39a3.17,3.17,0,0,1-1.13-2.6,4.65,4.65,0,0,1,.79-2.57,9.87,9.87,0,0,1,2-2.21A12.51,12.51,0,0,1,233.32,30l.9.32a9,9,0,0,0-.71,1.21,3.09,3.09,0,0,0-.34,1.42,1.79,1.79,0,0,0,.55,1.39,3.28,3.28,0,0,0,2.12.49h9c2.87,0,5,.56,6.3,1.66a5.53,5.53,0,0,1,2,4.49,7,7,0,0,1-1.58,4.43,10.43,10.43,0,0,1-4.88,3.21A25.68,25.68,0,0,1,238.26,49.82Zm1.52-17.75a13.68,13.68,0,0,1-5.88-1.18A9.33,9.33,0,0,1,230,27.56a8.64,8.64,0,0,1-1.42-4.88A8.58,8.58,0,0,1,230,17.77a9.36,9.36,0,0,1,3.93-3.31,13.68,13.68,0,0,1,5.88-1.18,13.89,13.89,0,0,1,5.91,1.18,9.38,9.38,0,0,1,4,3.31,8.58,8.58,0,0,1,1.42,4.91,8.64,8.64,0,0,1-1.42,4.88,9.35,9.35,0,0,1-4,3.33A13.89,13.89,0,0,1,239.78,32.07Zm-.89,12.5a18.32,18.32,0,0,0,5.85-.71c1.32-.47,2-1.13,2-2a1.19,1.19,0,0,0-.71-1.18,5.37,5.37,0,0,0-2.23-.34H232.91a2.55,2.55,0,0,0-.48.65,1.83,1.83,0,0,0-.21.87,2.19,2.19,0,0,0,1.55,2A13.35,13.35,0,0,0,238.89,44.57ZM239.78,27a4.34,4.34,0,0,0,3-1.1A4.13,4.13,0,0,0,244,22.68a4.16,4.16,0,0,0-1.23-3.26,4.7,4.7,0,0,0-6,0,4.16,4.16,0,0,0-1.23,3.26,4.13,4.13,0,0,0,1.23,3.25A4.36,4.36,0,0,0,239.78,27ZM251.86,9.92l-5.25,5.51-2.68-1,1.26-6.72Z"/><path class="cls-1" d="M279.63,39.53h-4.41a7,7,0,0,1-2.58-.48,4.24,4.24,0,0,1-2-1.54,5,5,0,0,1-.77-2.92V25.72l.21-1a7.2,7.2,0,0,0-.78-3.67c-.53-.88-1.67-1.32-3.41-1.32a8.88,8.88,0,0,0-4.57,1.24,11,11,0,0,0-3.47,3.17l-3.78-5.46a15.64,15.64,0,0,1,3.1-2.62,17.44,17.44,0,0,1,4.17-2,16.23,16.23,0,0,1,5.07-.76q4.88,0,7.59,2.54t2.7,7.38V32a1.63,1.63,0,0,0,.34,1.18,1.38,1.38,0,0,0,1,.34h1.53Zm-18.06.57a7.26,7.26,0,0,1-4.88-1.6,5.79,5.79,0,0,1-1.89-4.69,6.36,6.36,0,0,1,1.86-4.76A14.83,14.83,0,0,1,262.15,26l8.55-3.2.68,4.46-6.93,2.89a6.8,6.8,0,0,0-2.12,1.23,1.88,1.88,0,0,0-.6,1.34,1.63,1.63,0,0,0,.65,1.39,3.2,3.2,0,0,0,2,.5,7.56,7.56,0,0,0,2.36-.34,4.9,4.9,0,0,0,1.76-1,4.22,4.22,0,0,0,1.08-1.52,5.63,5.63,0,0,0,.36-2.1l.16,2.52a14.46,14.46,0,0,1-1.28,3.54,8.8,8.8,0,0,1-2.68,3.1A7.49,7.49,0,0,1,261.57,40.1Z"/><path class="cls-1" d="M290.7,39.53h-7.5V13.8h7.5Zm16.49,0h-7.51V24.2a7.3,7.3,0,0,0-.81-3.73c-.55-.91-1.69-1.36-3.44-1.36a5,5,0,0,0-2.81.68,3.78,3.78,0,0,0-1.47,2.05,11.22,11.22,0,0,0-.45,3.46l-.21-2.68a15.52,15.52,0,0,1,1.21-4.51,8.31,8.31,0,0,1,2.81-3.49,8,8,0,0,1,4.8-1.34,7.73,7.73,0,0,1,5.78,2.15,8.44,8.44,0,0,1,2.1,6.14Z"/><path class="cls-1" d="M336,39.53H331.6a7,7,0,0,1-2.58-.48,4.24,4.24,0,0,1-2-1.54,5,5,0,0,1-.77-2.92V25.72l.21-1a7.2,7.2,0,0,0-.78-3.67c-.53-.88-1.67-1.32-3.41-1.32a8.88,8.88,0,0,0-4.57,1.24,11,11,0,0,0-3.47,3.17l-3.78-5.46a15.64,15.64,0,0,1,3.1-2.62,17.44,17.44,0,0,1,4.17-2,16.23,16.23,0,0,1,5.07-.76q4.88,0,7.59,2.54t2.7,7.38V32a1.63,1.63,0,0,0,.34,1.18,1.38,1.38,0,0,0,1,.34H336ZM318,40.1a7.26,7.26,0,0,1-4.88-1.6,5.79,5.79,0,0,1-1.89-4.69A6.36,6.36,0,0,1,313,29.05,14.83,14.83,0,0,1,318.53,26l8.55-3.2.68,4.46-6.93,2.89a6.8,6.8,0,0,0-2.12,1.23,1.88,1.88,0,0,0-.6,1.34,1.63,1.63,0,0,0,.65,1.39,3.2,3.2,0,0,0,2,.5,7.56,7.56,0,0,0,2.36-.34,4.9,4.9,0,0,0,1.76-1,4.22,4.22,0,0,0,1.08-1.52,5.63,5.63,0,0,0,.36-2.1l.16,2.52a14.46,14.46,0,0,1-1.28,3.54,8.8,8.8,0,0,1-2.68,3.1A7.49,7.49,0,0,1,318,40.1Z"/><path class="cls-1" d="M85.32,73.64H82.45V69.25h2.87Z"/><path class="cls-1" d="M96.68,74a8.12,8.12,0,0,1-4.32-1.16,7.74,7.74,0,0,1-3-3.26,11.87,11.87,0,0,1,0-9.85,7.81,7.81,0,0,1,3-3.24,8.7,8.7,0,0,1,8.68,0,8.22,8.22,0,0,1,3,3.24,11.58,11.58,0,0,1,0,9.85A7.88,7.88,0,0,1,96.68,74Zm0-2.09a5.87,5.87,0,0,0,3.13-.82,5.38,5.38,0,0,0,2.07-2.44,11.39,11.39,0,0,0,0-8,5.38,5.38,0,0,0-2.07-2.44,5.87,5.87,0,0,0-3.13-.82,5.66,5.66,0,0,0-3.07.82,5.38,5.38,0,0,0-2.07,2.44,11,11,0,0,0,0,8,5.38,5.38,0,0,0,2.07,2.44A5.66,5.66,0,0,0,96.68,71.93Z"/><path class="cls-1" d="M111.8,73.64h-2.46V55.73h2.46Zm12.15,0h-2.39V62.1a5.08,5.08,0,0,0-1.06-3.41,4.22,4.22,0,0,0-3.41-1.25,5.16,5.16,0,0,0-3,.84,4.71,4.71,0,0,0-1.72,2.16,7.93,7.93,0,0,0-.52,2.88l-.22-1.22a9.51,9.51,0,0,1,.89-3.3,6.39,6.39,0,0,1,2.13-2.5,6,6,0,0,1,3.46-.95,5.82,5.82,0,0,1,4.28,1.57A6.21,6.21,0,0,1,124,61.57Z"/><path class="cls-1" d="M131.51,73.64h-2.46v-25h2.46Z"/><path class="cls-1" d="M139.18,52.56h-2.46V48.68h2.46Zm0,21.08h-2.46V55.73h2.46Z"/><path class="cls-1" d="M146.86,73.64H144.4V55.73h2.46Zm12.14,0h-2.38V62.1a5.08,5.08,0,0,0-1.07-3.41,4.19,4.19,0,0,0-3.4-1.25,5.19,5.19,0,0,0-3.06.84,4.76,4.76,0,0,0-1.71,2.16,7.72,7.72,0,0,0-.52,2.88l-.23-1.22a9.3,9.3,0,0,1,.9-3.3,6.28,6.28,0,0,1,2.12-2.5,6,6,0,0,1,3.47-.95,5.85,5.85,0,0,1,4.28,1.57,6.2,6.2,0,0,1,1.6,4.65Z"/><path class="cls-1" d="M171.52,74a8.75,8.75,0,0,1-4.4-1.08,7.49,7.49,0,0,1-3-3.19,10.92,10.92,0,0,1-1.08-5,11.24,11.24,0,0,1,1-5,7.68,7.68,0,0,1,2.89-3.2,8,8,0,0,1,4.25-1.14,8.27,8.27,0,0,1,4.25,1.06,7,7,0,0,1,2.73,3,10.3,10.3,0,0,1,1,4.64c0,.25,0,.48,0,.67a3.1,3.1,0,0,1-.1.56H164.81V63.47h12.74l-.56.79a7.4,7.4,0,0,0-1.56-5.14,6,6,0,0,0-8.42.05q-1.6,1.77-1.6,5.35v.37a9,9,0,0,0,.76,3.93,5.18,5.18,0,0,0,2.16,2.36,6.32,6.32,0,0,0,3.19.79,6.77,6.77,0,0,0,3-.58A5.64,5.64,0,0,0,176.4,70a7.4,7.4,0,0,0,1.08-1.72L179,70a9.09,9.09,0,0,1-2.78,2.82A8.28,8.28,0,0,1,171.52,74Z"/></g></g></svg>