<svg xmlns="http://www.w3.org/2000/svg" viewBox="0 0 954.15 211.6"><defs><style>.cls-1{fill:#6b7280;}</style></defs><g id="Layer_2" data-name="Layer 2"><g id="Layer_1-2" data-name="Layer 1"><path class="cls-1" d="M954.15,16.21A16.67,16.67,0,1,1,937.54,0,16.29,16.29,0,0,1,954.15,16.21Zm-29.17,0c0,7.22,5.34,13,12.66,13,7.11,0,12.35-5.73,12.35-12.85s-5.24-13-12.45-13S925,9.1,925,16.21Zm10,8.51h-3.76V8.5A33.45,33.45,0,0,1,937.44,8c3.06,0,4.45.49,5.63,1.18a4.52,4.52,0,0,1,1.59,3.56c0,1.78-1.39,3.17-3.37,3.76v.2c1.59.59,2.48,1.78,3,3.95.49,2.47.79,3.46,1.19,4.06h-4.06c-.49-.6-.79-2.08-1.28-4-.3-1.78-1.29-2.57-3.36-2.57H935Zm.1-9.2h1.78c2.07,0,3.75-.69,3.75-2.37,0-1.48-1.09-2.47-3.46-2.47a9.55,9.55,0,0,0-2.07.19Z"/><path class="cls-1" d="M571.56,147.86H544.49l44.7-125.69H622l44.7,125.69h-28L612.34,70.19l-7.13-26.63-7.12,26.63Zm65.53-28H569.42V97.21h67.67Z"/><path class="cls-1" d="M425,210.78H397.89V191.57l8.61-9.87H425Z"/><path class="cls-1" d="M441,210.78v-3.7l22.08-30.9h-21.3v-4H468.1v3.7L446,206.76h22.85v4Z"/><path class="cls-1" d="M486.59,211.6a18.37,18.37,0,0,1-9.59-2.46,17.05,17.05,0,0,1-6.48-7,25.36,25.36,0,0,1,0-21.28,17.35,17.35,0,0,1,6.48-7,19.66,19.66,0,0,1,19.19,0,17.4,17.4,0,0,1,6.47,7,25.36,25.36,0,0,1,0,21.28,17.1,17.1,0,0,1-6.47,7A18.43,18.43,0,0,1,486.59,211.6Zm0-4a13.76,13.76,0,0,0,7.34-1.93,12.82,12.82,0,0,0,4.83-5.55,19.89,19.89,0,0,0,1.72-8.63,19.32,19.32,0,0,0-1.76-8.59,13,13,0,0,0-4.87-5.5,14.69,14.69,0,0,0-14.59,0,13,13,0,0,0-4.88,5.5,19.33,19.33,0,0,0-1.75,8.59,19.6,19.6,0,0,0,1.75,8.63,13.05,13.05,0,0,0,4.88,5.55A13.7,13.7,0,0,0,486.59,207.58Z"/><path class="cls-1" d="M510.54,210.78V172.16h4.21v7.31a13.27,13.27,0,0,1,5-6,14.57,14.57,0,0,1,8.11-2.17q6.39,0,9.94,3.82t3.55,12v23.58h-4.29V187.53q0-6.42-2.49-9.25c-1.67-1.89-4.16-2.84-7.49-2.84a10.52,10.52,0,0,0-9.05,4.28q-3.12,4.28-3.12,11.5v19.56Z"/><path class="cls-1" d="M565.46,211.6a18.74,18.74,0,0,1-9.56-2.42,17,17,0,0,1-6.55-7,25.53,25.53,0,0,1,0-21.44,17.39,17.39,0,0,1,6.32-7,16.7,16.7,0,0,1,9-2.46,17.37,17.37,0,0,1,9.09,2.26,15.09,15.09,0,0,1,5.77,6,17.66,17.66,0,0,1,2,8.38,10.14,10.14,0,0,1-.35,2.5,11.87,11.87,0,0,1-.74,2.18H551.42a18.2,18.2,0,0,0,2.06,8,12.89,12.89,0,0,0,5,5.1,14.6,14.6,0,0,0,7.33,1.77,16.2,16.2,0,0,0,6.67-1.28,21.2,21.2,0,0,0,5.5-3.65l1.95,3.45a19.1,19.1,0,0,1-6.4,4.15A22.27,22.27,0,0,1,565.46,211.6Zm-14-22.84h25.35a1.12,1.12,0,0,0,.16-.58v-.65a13.36,13.36,0,0,0-1.41-6.25,10.32,10.32,0,0,0-4.09-4.27,13.32,13.32,0,0,0-6.75-1.57,12.22,12.22,0,0,0-6.12,1.61,13.19,13.19,0,0,0-4.72,4.56A17.29,17.29,0,0,0,551.42,188.76Z"/><path class="cls-1" d="M443.42,148.87H406.25l-31-129H407L420.7,90.33l4.81,39.09,6.74-36L449,19.85h36.4L502,93.41l6.54,36,5-39.09,13.86-70.48H559l-31.19,129H490.6L474,81.28,467.1,39.49l-6.93,41.79Z"/><path class="cls-1" d="M694.55,148.87H667v-129h27.53Zm34.08-48.34H677.8V78.39h48.14a30.15,30.15,0,0,0,10.59-1.73,15.11,15.11,0,0,0,7.22-5.4q2.6-3.65,2.6-9.82a17.61,17.61,0,0,0-2.6-10,14.12,14.12,0,0,0-7.22-5.49,31.66,31.66,0,0,0-10.59-1.63H677.8V19.85h49.1a67.19,67.19,0,0,1,24.84,4.33A37.06,37.06,0,0,1,769,37.47q6.25,9,6.25,22.63,0,13.27-6.25,21.66A35.81,35.81,0,0,1,752.22,94a65.21,65.21,0,0,1-23.59,3.65Zm51.61,48.34H748.47l-21.76-36.59q-3.86-6.36-8.76-9t-13.39-2.7l26.58-4.62a33.88,33.88,0,0,1,12.8,3.18,30.19,30.19,0,0,1,8.76,6.64,67.26,67.26,0,0,1,7.13,9.63Z"/><path class="cls-1" d="M810.69,148.87H783.16v-129h27.53Zm26-37.36H793.94V87.05h41.78a35,35,0,0,0,12.62-2.11A18.21,18.21,0,0,0,857,78.2q3.18-4.64,3.18-12.14,0-8.09-3.18-12.8a18,18,0,0,0-8.66-6.84,35,35,0,0,0-12.62-2.11H793.94V19.85h42.75a70.49,70.49,0,0,1,26.67,4.81,40.86,40.86,0,0,1,18.77,14.93q6.93,10.11,6.93,26.47,0,16-6.83,26a39.86,39.86,0,0,1-18.68,14.73A72,72,0,0,1,836.69,111.51Z"/><polygon class="cls-1" points="313.16 113.56 251.59 113.56 281.42 164.87 252.49 211.6 196.88 211.6 168.42 162.64 138.11 211.6 84.38 211.6 55.4 161.74 27.39 113.56 0 66.45 26.94 22.92 99.18 143.03 104.61 146.16 124.31 146.45 130.12 142.99 169.89 66.86 175.61 66.89 210.03 128.47 221.31 122.17 185.05 57.3 179.45 54 166.03 53.93 160.27 57.4 120.52 133.49 108.39 133.3 37.56 15.52 82.89 15.52 113.41 68.02 145.89 15.52 194.59 15.52 226.01 69.57 259.46 15.52 307.09 15.52 339.42 71.14 313.16 113.56"/></g></g></svg>